<?xml version="1.0" standalone="no"?><!DOCTYPE svg PUBLIC "-//W3C//DTD SVG 1.1//EN" "http://www.w3.org/Graphics/SVG/1.1/DTD/svg11.dtd"><svg t="1655692807166" class="icon" viewBox="0 0 1024 1024" version="1.1" xmlns="http://www.w3.org/2000/svg" p-id="6549" width="48" height="48" xmlns:xlink="http://www.w3.org/1999/xlink"><defs><style type="text/css"></style></defs><path d="M672.694989 342.528L558.518989 69.12c-1.536-2.56-3.072-6.144-5.632-10.24-2.56-4.096-5.632-8.704-8.704-12.288-3.584-4.096-8.192-7.68-12.8-10.752-5.632-3.072-11.776-4.608-17.92-4.608-11.264-0.512-22.528 3.584-30.72 11.776-7.68 8.192-13.312 17.408-17.408 28.16l-117.76 273.408-315.392 28.672c-7.68 1.536-14.848 4.608-20.48 10.24C5.558989 389.632 1.462989 397.312 0.438989 406.016c-1.536 9.728 1.024 19.968 6.656 28.16 5.632 9.216 12.8 17.92 20.992 25.088 0.512 0.512 4.608 4.096 11.264 9.728 6.656 5.632 15.36 13.312 26.112 22.528s22.528 19.456 35.84 30.72l40.448 34.304c0.512 0.512 223.744-65.536 231.936-69.632 0-25.088 14.336-47.616 36.864-58.88 8.704-4.608 18.432-6.656 28.16-7.168 35.84 0.512 65.024 29.184 65.024 65.024 0 10.752-2.56 21.504-8.192 30.72 3.072 3.584 125.44 136.704 126.464 138.24 6.144-2.56 12.8-3.584 19.456-3.584h2.56c2.048-5.12 163.84-292.352 165.376-295.936l-136.704-12.8z" fill="#AEC9FF" p-id="6550"></path><path d="M1016.246989 384.512c-8.704-6.144-18.432-10.24-28.672-12.288l-129.536-12.288c-1.024 2.048-171.52 306.688-174.592 311.296v0.512c7.168 9.216 11.264 20.48 11.264 32.256 0 29.184-23.552 52.736-52.736 52.736-29.184 0-52.736-23.552-52.736-52.736 0-6.144 1.024-11.776 3.072-17.408-0.512-1.024-126.976-137.216-129.536-139.776-7.68 3.072-15.872 4.608-24.064 4.608-19.968 0-38.912-9.216-51.2-25.088l-205.312 65.024s43.008 36.864 67.072 57.856l-34.816 142.848c-4.608 18.432-9.216 36.352-13.824 54.272-4.608 17.92-8.192 33.792-11.776 48.64-3.584 14.848-6.656 27.136-9.216 37.888-2.56 10.752-4.608 17.408-5.12 19.968-1.536 6.144-0.512 12.288 2.048 17.92 3.072 6.144 7.168 11.264 12.8 14.848 5.632 4.096 12.288 6.656 19.456 7.68 7.168 1.024 14.336 0 20.992-3.584 6.656-3.072 13.312-6.656 19.968-10.24 9.728-5.632 21.504-12.288 35.328-20.48s28.672-16.896 45.568-26.624c16.384-9.728 33.28-18.944 50.688-28.672 39.424-22.528 83.456-48.128 131.584-76.8l266.24 155.136c3.584 1.536 8.192 3.072 14.848 5.632 4.608 2.048 9.728 3.072 14.848 3.584 9.728 0 18.944-2.048 27.648-6.656 8.192-4.608 11.264-13.312 9.216-27.136-0.512-2.56-2.048-9.216-4.096-19.968-2.048-10.752-4.608-23.04-7.68-38.4-3.072-14.848-6.144-31.744-9.728-50.176s-7.168-36.864-11.264-55.296c-8.704-43.52-18.944-92.16-30.72-145.92l211.456-189.44c8.704-10.24 16.384-18.944 22.016-26.112 5.632-7.168 8.704-15.872 8.704-24.576 0.512-8.704-2.56-16.896-8.192-23.04z" fill="#3366FF" p-id="6551"></path><path d="M142.262989 555.008z" p-id="6552"></path></svg>